<?xml version="1.0" encoding="UTF-8"?>
<svg enable-background="new 0 0 355 355" version="1.1" viewBox="0 0 355 355" xml:space="preserve" xmlns="http://www.w3.org/2000/svg">
<style type="text/css">
	.st0{fill:#C34528;}
</style>
<path class="st0" d="m104.4 50.9c-14.1 19.7-22.4 43.8-22.4 69.9v201.8l-49.3 31.8v-193.5c0-49.1 29.5-91.4 71.7-110z"/>
<path class="st0" d="m250.6 230.8c-5.2 7.2-11.1 13.9-17.8 19.8-21.2 19-49.3 30.5-80 30.5-2.2 0-4.4-0.1-6.6-0.2v-53.7c14.9 7.8 31.6 12.6 49.4 13.6 2.2 0.1 4.4 0.2 6.6 0.2 17.2-0.1 33.6-3.7 48.4-10.2z"/>
<path class="st0" d="m322.3 120.8c0 35.6-15.5 67.6-40.1 89.6-9.3 8.3-20 15.2-31.6 20.4 14.1-19.7 22.4-43.8 22.4-69.8 0-66.3-53.8-120.1-120.1-120.1-14.6 0-28.7 2.6-41.7 7.4-2.3 0.8-4.5 1.8-6.7 2.7 13.9-19.4 33.4-34.5 56.1-42.9 13-4.8 27-7.4 41.7-7.4 66.2-0.1 120 53.7 120 120.1z"/>
</svg>
