<?xml version="1.0" encoding="UTF-8"?>
<svg enable-background="new 0 0 2550 490" version="1.1" viewBox="0 0 2550 490" xml:space="preserve" xmlns="http://www.w3.org/2000/svg">
<style type="text/css">
	.st0{fill:#C34528;}
</style>
	<path class="st0" d="m72.5 129.9c-14.1 19.7-22.4 43.8-22.4 69.9v202.3l-49.3 31.3v-193.5c0-49.1 29.5-91.4 71.7-110z"/>
	<path class="st0" d="m218.7 309.8c-5.2 7.2-11.1 13.9-17.8 19.8-21.2 19-49.3 30.5-80 30.5-2.2 0-4.4-0.1-6.6-0.2v-53.7c14.9 7.8 31.6 12.6 49.4 13.6 2.2 0.1 4.4 0.2 6.6 0.2 17.2-0.1 33.6-3.7 48.4-10.2z"/>
	<path class="st0" d="m290.4 199.8c0 35.6-15.5 67.6-40.1 89.6-9.3 8.3-20 15.2-31.6 20.4 14.1-19.7 22.4-43.8 22.4-69.8 0-66.3-53.8-120.1-120.1-120.1-14.6 0-28.7 2.6-41.7 7.4-2.3 0.8-4.5 1.8-6.7 2.7 13.9-19.4 33.4-34.5 56.1-42.9 13-4.8 27-7.4 41.7-7.4 66.2-0.1 120 53.7 120 120.1z"/>


	<path class="st0" d="m592 198.8c0-66.1-53.6-119.7-119.7-119.7-40.5 0-76.3 20.1-98 50.9 14.7-6.4 30.8-10 47.8-10 66.1 0 119.7 53.6 119.7 119.7 0 25.6-8.1 49.4-21.8 68.9 42.5-18.4 72-60.6 72-109.8z"/>
	<path class="st0" d="m352.5 198.8c0-25.6 8.1-49.4 21.8-68.9-42.3 18.5-71.9 60.7-71.9 109.8 0 66.1 53.6 119.7 119.7 119.7 40.5 0 76.3-20.1 98-50.9-14.7 6.4-30.8 10-47.8 10-66.1 0.1-119.8-53.5-119.8-119.7z"/>


	<path class="st0" d="m799.5 289.7c0.3 38.3-31.9 69.4-72.2 69.8h-9.8c20-13.6 33.5-43.4 33.3-77.6l48.1-0.5c0.4 2.7 0.6 5.5 0.6 8.3z"/>
	<path class="st0" d="m680.6 359.5c-25.4 0-76.6-30.5-76.6-74.9v-205.5l49.3 31.2v170.5c0.1 30 4.7 64.6 27.3 78.7z"/>


	<path class="st0" d="m1115.2 129.9c-14.1 19.7-22.4 43.8-22.4 69.9v201.8l-49.3 31.8v-193.5c0-49.1 29.5-91.4 71.7-110z"/>
	<path class="st0" d="m1261.4 309.8c-5.2 7.2-11.1 13.9-17.8 19.8-21.2 19-49.3 30.5-80 30.5-2.2 0-4.4-0.1-6.6-0.2v-53.7c14.9 7.8 31.6 12.6 49.4 13.6 2.2 0.1 4.4 0.2 6.6 0.2 17.2-0.1 33.6-3.7 48.4-10.2z"/>
	<path class="st0" d="m1333.1 199.8c0 35.6-15.5 67.6-40.1 89.6-9.3 8.3-20 15.2-31.6 20.4 14.1-19.7 22.4-43.8 22.4-69.8 0-66.3-53.8-120.1-120.1-120.1-14.6 0-28.7 2.6-41.7 7.4-2.3 0.8-4.5 1.8-6.7 2.7 13.9-19.4 33.4-34.5 56.1-42.9 13-4.8 27-7.4 41.7-7.4 66.2-0.1 120 53.7 120 120.1z"/>


	<path class="st0" d="m959.8 436.5c14.1-19.7 22.4-43.8 22.4-69.9v-287.5l49.3 31.9v215.5c0 49.1-29.5 91.4-71.7 110z"/>
	<path class="st0" d="m959.8 436.5c-5.2 7.2-11.1 13.9-17.8 19.8-21.2 19-49.3 30.5-80 30.5-2.2 0-4.4-0.1-6.6-0.2v-53.7c14.9 7.8 31.6 12.6 49.4 13.6 2.2 0.1 4.4 0.2 6.6 0.2 17.2-0.1 33.6-3.7 48.4-10.2z"/>

	<path class="st0" d="M811.5,243V79.1l43.5,31.2l0.2,31.2l0.1,22l0.3,79.5c-0.2,125.8,121.3,72.5,121.3,72.5S811.5,424.4,811.5,243z"/>

	<path class="st0" d="m1416.8 3.3c-14.1 19.7-22.4 43.8-22.4 69.9v255.7l-49.3 31.3v-246.9c0-49.2 29.5-91.5 71.7-110z"/>
	<path class="st0" d="m1565 196.8v132.1l-43.5 31.3-0.2-61.9-0.1-22-0.3-79.5c0.2-125.8-121.3-72.5-121.3-72.5s165.4-109 165.4 72.5z"/>


	<path class="st0" d="m1648.7 129.4c5.2-7.2 11.1-13.9 17.8-19.8 21.2-19 49.3-30.5 80-30.5 2.2 0 4.4 0.1 6.6 0.2v53.7c-14.9-7.8-31.6-12.6-49.4-13.6-2.2-0.1-4.4-0.2-6.6-0.2-17.2 0.1-33.6 3.7-48.4 10.2z"/>
	<path class="st0" d="m1577 239.4c0-35.6 15.5-67.6 40.1-89.6 9.3-8.3 20-15.2 31.6-20.4-14.1 19.7-22.4 43.8-22.4 69.8 0 66.3 53.8 120.1 120.1 120.1 14.6 0 35.4-5.3 48.4-10.1 2.3-0.8-2.2 0.9 0 0-13.9 19.4-33.4 34.5-56.1 42.9-13 4.8-27 7.4-41.7 7.4-66.2 0.1-120-53.7-120-120.1z"/>
	<path class="st0" d="m1877.3 359.5c-25.4 0-76.6-30.5-76.6-74.9v-205.5l49.3 31.2v170.5c0.1 30 4.7 64.6 27.3 78.7z"/>

	<circle class="st0" cx="1922.9" cy="325.8" r="33.7"/>
	<path class="st0" d="m2040.3 129.4c5.2-7.2 11.1-13.9 17.8-19.8 21.2-19 49.3-30.5 80-30.5 2.2 0 4.4 0.1 6.6 0.2v53.7c-14.9-7.8-31.6-12.6-49.4-13.6-2.2-0.1-4.4-0.2-6.6-0.2-17.2 0.1-33.6 3.7-48.4 10.2z"/>
	<path class="st0" d="m1968.6 239.4c0-35.6 15.5-67.6 40.1-89.6 9.3-8.3 20-15.2 31.6-20.4-14.1 19.7-22.4 43.8-22.4 69.8 0 66.3 53.8 120.1 120.1 120.1 14.6 0 35.4-5.3 48.4-10.1 2.3-0.8-2.2 0.9 0 0-13.9 19.4-33.4 34.5-56.1 42.9-13 4.8-27 7.4-41.7 7.4-66.2 0.1-120-53.7-120-120.1z"/>

	<path class="st0" d="m2165.3 436.5c14.1-19.7 22.4-43.8 22.4-69.9v-287.5l49.3 31.3v216.1c0 49.1-29.5 91.4-71.7 110z"/>
	<path class="st0" d="m2165.3 436.5c-5.2 7.2-11.1 13.9-17.8 19.8-21.2 19-49.3 30.5-80 30.5-2.2 0-4.4-0.1-6.6-0.2v-53.7c14.9 7.8 31.6 12.6 49.4 13.6 2.2 0.1 4.4 0.2 6.6 0.2 17.2-0.1 33.6-3.7 48.4-10.2z"/>

	<path class="st0" d="m2320.7 129.4c5.2-7.2 11.1-13.9 17.8-19.8 21.2-19 49.3-30.5 80-30.5 2.2 0 4.4 0.1 6.6 0.2v53.7c-14.9-7.8-31.6-12.6-49.4-13.6-2.2-0.1-4.4-0.2-6.6-0.2-17.2 0.1-33.6 3.7-48.4 10.2z"/>
	<path class="st0" d="m2249 239.4c0-35.6 15.5-67.6 40.1-89.6 9.3-8.3 20-15.2 31.6-20.4-14.1 19.7-22.4 43.8-22.4 69.8 0 66.3 53.8 120.1 120.1 120.1 14.6 0 35.4-5.3 48.4-10.1 2.3-0.8-2.2 0.9 0 0-13.9 19.4-33.4 34.5-56.1 42.9-13 4.8-27 7.4-41.7 7.4-66.2 0.1-120-53.7-120-120.1z"/>
	<path class="st0" d="m2549.2 359.5c-25.4 0-76.6-30.5-76.6-74.9v-205.5l49.3 31.2v170.5c0.1 30 4.7 64.6 27.3 78.7z"/>
</svg>
